<?xml version="1.0" encoding="UTF-8" standalone="no"?>
<!-- Created with Inkscape (http://www.inkscape.org/) -->

<svg
   width="48"
   height="48"
   viewBox="0 0 12.7 12.7"
   version="1.1"
   id="svg5"
   sodipodi:docname="logo.svg"
   xml:space="preserve"
   inkscape:version="1.2.1 (9c6d41e410, 2022-07-14)"
   inkscape:export-filename="..\..\..\..\Desktop\gh.png"
   inkscape:export-xdpi="96"
   inkscape:export-ydpi="96"
   xmlns:inkscape="http://www.inkscape.org/namespaces/inkscape"
   xmlns:sodipodi="http://sodipodi.sourceforge.net/DTD/sodipodi-0.dtd"
   xmlns:xlink="http://www.w3.org/1999/xlink"
   xmlns="http://www.w3.org/2000/svg"
   xmlns:svg="http://www.w3.org/2000/svg"><sodipodi:namedview
     id="namedview7"
     pagecolor="#ffffff"
     bordercolor="#000000"
     borderopacity="0.25"
     inkscape:showpageshadow="2"
     inkscape:pageopacity="0.0"
     inkscape:pagecheckerboard="0"
     inkscape:deskcolor="#d1d1d1"
     inkscape:document-units="px"
     showgrid="false"
     inkscape:zoom="4.3540636"
     inkscape:cx="104.27041"
     inkscape:cy="0.57417627"
     inkscape:window-width="1920"
     inkscape:window-height="1051"
     inkscape:window-x="-9"
     inkscape:window-y="-9"
     inkscape:window-maximized="1"
     inkscape:current-layer="layer4"
     showguides="true"><sodipodi:guide
       position="6.3499994,12.048196"
       orientation="0,-1"
       id="guide1074"
       inkscape:locked="false" /><sodipodi:guide
       position="6.3486328,0.64310865"
       orientation="0,-1"
       id="guide1078"
       inkscape:locked="false" /></sodipodi:namedview><defs
     id="defs2"><inkscape:path-effect
       effect="bspline"
       id="path-effect16097"
       is_visible="true"
       lpeversion="1"
       weight="33.333333"
       steps="2"
       helper_size="0"
       apply_no_weight="true"
       apply_with_weight="true"
       only_selected="false" /><inkscape:path-effect
       effect="bspline"
       id="path-effect15271"
       is_visible="true"
       lpeversion="1"
       weight="33.333333"
       steps="2"
       helper_size="0"
       apply_no_weight="true"
       apply_with_weight="true"
       only_selected="false" /></defs><g
     inkscape:groupmode="layer"
     id="layer4"
     inkscape:label="Github"
     style="display:none"><image
       width="52.916668"
       height="26.458334"
       preserveAspectRatio="none"
       xlink:href="..%5C.%5C..%5C..%5C..%5CDownloads%5Crepository-open-graph-template.png"
       id="image14420"
       x="-3.6523438"
       y="-6.8791671"
       style="display:inline;stroke-width:6.4"
       inkscape:export-filename="..\..\..\Desktop\gh.png"
       inkscape:export-xdpi="614.40002"
       inkscape:export-ydpi="614.40002" /><rect
       style="display:inline;fill:#555555;fill-opacity:1;stroke:none;stroke-width:0.529167;stroke-linejoin:miter;stroke-dasharray:none;stroke-opacity:1;paint-order:stroke fill markers"
       id="rect14788"
       width="52.916668"
       height="26.458334"
       x="-3.6523438"
       y="-6.8791676"
       inkscape:export-filename="..\..\..\..\Desktop\gh.png"
       inkscape:export-xdpi="614.39996"
       inkscape:export-ydpi="614.39996" /><text
       xml:space="preserve"
       style="font-weight:bold;font-size:10.5833px;font-family:Comfortaa;-inkscape-font-specification:'Comfortaa Bold';text-orientation:upright;fill:#b0d8e3;fill-opacity:1;stroke:none;stroke-width:0.529167;stroke-linejoin:miter;stroke-dasharray:none;stroke-opacity:1;paint-order:stroke fill markers"
       x="12.54125"
       y="12.056891"
       id="text14848"><tspan
         sodipodi:role="line"
         id="tspan14846"
         style="font-size:10.5833px;fill:#b0d8e3;fill-opacity:1;stroke-width:0.529167"
         x="12.54125"
         y="12.056891">T24</tspan></text><text
       xml:space="preserve"
       style="font-weight:bold;font-size:2.64583px;font-family:Comfortaa;-inkscape-font-specification:'Comfortaa Bold';text-orientation:upright;fill:#f1f2f6;fill-opacity:1;stroke:none;stroke-width:0.529167;stroke-linejoin:miter;stroke-dasharray:none;stroke-opacity:1;paint-order:stroke fill markers"
       x="12.514791"
       y="2.7181971"
       id="text14954"><tspan
         sodipodi:role="line"
         id="tspan14952"
         style="font-size:2.64583px;fill:#f1f2f6;fill-opacity:1;stroke-width:0.529167"
         x="12.514791"
         y="2.7181971">lukenk.github.io/</tspan></text><g
       id="g1181"
       transform="matrix(0.02996055,0,0,0.02996055,42.082848,1.4406692)"
       style="fill:#f1f2f6;fill-opacity:0.501961;stroke-width:8.83106"><path
         d="M 50,94.793 C 38.375,94.793 32.293,72.25 32.293,50 32.293,27.75 38.375,5.207 50,5.207 61.625,5.207 67.707,27.75 67.707,50 67.707,72.25 61.625,94.793 50,94.793 Z m 0,-83.336 c -4.668,0 -11.457,15 -11.457,38.543 0,23.543 6.793,38.543 11.457,38.543 4.668,0 11.457,-15 11.457,-38.543 C 61.457,26.457 54.664,11.457 50,11.457 Z"
         id="path1148"
         style="fill:#f1f2f6;fill-opacity:0.501961;stroke-width:8.83106" /><path
         d="M 77.082,77.543 C 67.289,77.543 53.539,72.5 41.125,65.336 31.207,59.586 22.582,52.836 16.957,46.254 8.789,36.754 9.332,30.879 11.207,27.629 17,17.547 39.582,23.547 58.832,34.672 c 9.918,5.75 18.543,12.5 24.168,19.082 8.168,9.5 7.625,15.375 5.75,18.625 -2.082,3.582 -6.293,5.125 -11.707,5.125 z M 22.75,28.75 c -3.25,0 -5.375,0.70703 -6.125,2 -0.875,1.543 -0.08203,5.457 5.082,11.418 5.207,6.043 13.25,12.375 22.582,17.75 20.375,11.75 36.793,13.375 39.125,9.332 0.875,-1.543 0.08203,-5.457 -5.082,-11.418 C 73.125,51.789 65.082,45.457 55.75,40.082 41.832,32.039 29.793,28.75 22.793,28.75 Z"
         id="path1150"
         style="fill:#f1f2f6;fill-opacity:0.501961;stroke-width:8.83106" /><path
         d="M 22.918,77.543 C 17.5,77.543 13.293,76 11.211,72.418 9.336,69.168 8.793,63.293 16.961,53.793 22.629,47.211 31.211,40.418 41.129,34.711 60.422,23.586 82.961,17.586 88.754,27.668 c 1.875,3.25 2.418,9.125 -5.75,18.625 C 77.336,52.875 68.754,59.668 58.836,65.375 46.418,72.543 32.668,77.582 22.879,77.582 Z M 44.25,40.082 c -9.332,5.375 -17.375,11.707 -22.582,17.75 -5.168,6 -5.957,9.918 -5.082,11.418 2.332,4.043 18.75,2.418 39.125,-9.332 9.332,-5.375 17.375,-11.707 22.582,-17.75 5.168,-6 5.957,-9.918 5.082,-11.418 -2.332,-4.043 -18.75,-2.418 -39.125,9.332 z"
         id="path1152"
         style="fill:#f1f2f6;fill-opacity:0.501961;stroke-width:8.83106" /><path
         d="m 56.25,50 c 0,3.4531 -2.7969,6.25 -6.25,6.25 -3.4531,0 -6.25,-2.7969 -6.25,-6.25 0,-3.4531 2.7969,-6.25 6.25,-6.25 3.4531,0 6.25,2.7969 6.25,6.25"
         id="path1154"
         style="fill:#f1f2f6;fill-opacity:0.501961;stroke-width:8.83106" /><path
         d="m 82.293,73.957 c 0,3.4531 -2.8008,6.25 -6.25,6.25 -3.4531,0 -6.25,-2.7969 -6.25,-6.25 0,-3.4492 2.7969,-6.25 6.25,-6.25 3.4492,0 6.25,2.8008 6.25,6.25"
         id="path1156"
         style="fill:#f1f2f6;fill-opacity:0.501961;stroke-width:8.83106" /><path
         d="m 30.207,26.043 c 0,3.4492 -2.7969,6.25 -6.25,6.25 -3.4492,0 -6.25,-2.8008 -6.25,-6.25 0,-3.4531 2.8008,-6.25 6.25,-6.25 3.4531,0 6.25,2.7969 6.25,6.25"
         id="path1158"
         style="fill:#f1f2f6;fill-opacity:0.501961;stroke-width:8.83106" /><path
         d="m 46.875,84.375 c 0,3.4531 -2.7969,6.25 -6.25,6.25 -3.4531,0 -6.25,-2.7969 -6.25,-6.25 0,-3.4531 2.7969,-6.25 6.25,-6.25 3.4531,0 6.25,2.7969 6.25,6.25"
         id="path1160"
         style="fill:#f1f2f6;fill-opacity:0.501961;stroke-width:8.83106" /></g><g
       id="g2281"
       transform="matrix(0.0245665,0,0,0.0245665,33.806715,-6.0763567)"
       style="fill:#f1f2f6;fill-opacity:0.5;stroke-width:10.7701"><g
         id="g2262"
         style="fill:#f1f2f6;fill-opacity:0.5;stroke-width:10.7701"
         transform="translate(260.64165,137.04508)"><path
           d="m 9.375,45.5 h 33 c 1.75,0 3.125,-1.375 3.125,-3.125 v -33 C 45.5,7.6562 44.125,6.25 42.375,6.25 h -33 C 7.6562,6.25 6.25,7.6562 6.25,9.375 v 33 c 0,1.75 1.4062,3.125 3.125,3.125 z m 10.25,-22.75 h 3.125 v -3.125 c 0,-1.7188 1.4062,-3.125 3.125,-3.125 1.7188,0 3.125,1.4062 3.125,3.125 v 3.125 h 3.125 c 1.7188,0 3.125,1.4062 3.125,3.125 0,1.7188 -1.4062,3.125 -3.125,3.125 H 29 v 3.125 c 0,1.7188 -1.4062,3.125 -3.125,3.125 -1.7188,0 -3.125,-1.4062 -3.125,-3.125 V 29 H 19.625 C 17.9062,29 16.5,27.5938 16.5,25.875 c 0,-1.7188 1.4062,-3.125 3.125,-3.125 z"
           id="path2254"
           style="fill:#f1f2f6;fill-opacity:0.5;stroke-width:10.7701" /><path
           d="m 90.625,6.25 h -33 c -1.75,0 -3.125,1.4062 -3.125,3.125 v 33 c 0,1.75 1.375,3.125 3.125,3.125 h 33 c 1.7188,0 3.125,-1.375 3.125,-3.125 v -33 C 93.75,7.6562 92.3438,6.25 90.625,6.25 Z M 80.375,29 h -12.5 c -1.7188,0 -3.125,-1.4062 -3.125,-3.125 0,-1.7188 1.4062,-3.125 3.125,-3.125 h 12.5 c 1.7188,0 3.125,1.4062 3.125,3.125 0,1.7188 -1.4062,3.125 -3.125,3.125 z"
           id="path2256"
           style="fill:#f1f2f6;fill-opacity:0.5;stroke-width:10.7701" /><path
           d="m 9.375,93.75 h 33 c 1.75,0 3.125,-1.4062 3.125,-3.125 v -33 c 0,-1.75 -1.375,-3.125 -3.125,-3.125 h -33 c -1.7188,0 -3.125,1.375 -3.125,3.125 v 33 c 0,1.7188 1.4062,3.125 3.125,3.125 z m 9.5938,-22.094 c -1.2188,-1.2188 -1.2188,-3.2188 0,-4.4375 1.2188,-1.2187 3.2188,-1.2188 4.4375,0 l 2.4688,2.4688 2.4688,-2.4688 c 1.2188,-1.2188 3.2188,-1.2188 4.4375,0 1.2187,1.2188 1.2188,3.2188 0,4.4375 l -2.4688,2.4688 2.4688,2.4688 c 1.2188,1.2188 1.2188,3.2188 0,4.4375 -0.625,0.59375 -1.4062,0.90625 -2.2188,0.90625 -0.78125,0 -1.5938,-0.3125 -2.2188,-0.90625 l -2.4688,-2.5 -2.4688,2.5 c -0.625,0.59375 -1.4062,0.90625 -2.2188,0.90625 -0.78125,0 -1.5938,-0.3125 -2.2188,-0.90625 -1.2188,-1.2188 -1.2188,-3.2188 0,-4.4375 l 2.5,-2.4688 z"
           id="path2258"
           style="fill:#f1f2f6;fill-opacity:0.5;stroke-width:10.7701" /><path
           d="m 90.625,54.5 h -33 c -1.75,0 -3.125,1.375 -3.125,3.125 v 33 c 0,1.7188 1.375,3.125 3.125,3.125 h 33 c 1.7188,0 3.125,-1.4062 3.125,-3.125 v -33 c 0,-1.75 -1.4062,-3.125 -3.125,-3.125 z m -10.25,27.281 h -12.5 c -1.7188,0 -3.125,-1.4062 -3.125,-3.125 0,-1.7188 1.4062,-3.125 3.125,-3.125 h 12.5 c 1.7188,0 3.125,1.4062 3.125,3.125 0,1.7188 -1.4062,3.125 -3.125,3.125 z m 0,-9.0625 h -12.5 c -1.7188,0 -3.125,-1.4062 -3.125,-3.125 0,-1.7188 1.4062,-3.125 3.125,-3.125 h 12.5 c 1.7188,0 3.125,1.4062 3.125,3.125 0,1.7188 -1.4062,3.125 -3.125,3.125 z"
           id="path2260"
           style="fill:#f1f2f6;fill-opacity:0.5;stroke-width:10.7701" /></g></g><g
       id="g2522"
       transform="matrix(0.02351749,0,0,0.02351749,36.983088,4.1786605)"
       style="fill:#f1f2f6;fill-opacity:0.501961;stroke-width:11.2505"><path
         d="m 9.9648,77.359 c 0.20703,0.15625 0.44531,0.19922 0.69531,0.12891 15.137,-4.2695 27.75,-3.5781 37.844,2.0781 v -60.766 c -10.312,-5.7812 -23.266,-6.375 -38.852,-1.7852 v 59.715 c -0.00391,0.25391 0.10938,0.47656 0.3125,0.62891 z m 34.805,-5.6797 c -0.25781,0.78125 -1.1016,1.207 -1.8828,0.94922 -4.4336,-1.4766 -9.0352,-2.1719 -13.691,-2.2695 -4.6875,-0.09766 -9.4258,0.41406 -14.102,1.3516 -0.80859,0.16016 -1.5938,-0.36328 -1.7539,-1.1719 -0.16016,-0.80859 0.36328,-1.5938 1.1719,-1.7539 4.8789,-0.98047 9.8359,-1.5117 14.746,-1.4102 4.9414,0.10156 9.8359,0.84766 14.57,2.4219 0.77734,0.25781 1.1992,1.1016 0.94141,1.8828 z M 44.762,63.6988 c -0.27344,0.77734 -1.1289,1.1875 -1.9062,0.91406 -4.3672,-1.543 -8.9062,-2.293 -13.539,-2.4141 -4.668,-0.12109 -9.4336,0.39453 -14.215,1.3945 -0.80859,0.16797 -1.5977,-0.35156 -1.7656,-1.1562 -0.16797,-0.80859 0.35156,-1.5977 1.1562,-1.7656 4.9883,-1.0391 9.9805,-1.582 14.895,-1.4531 4.9492,0.12891 9.8008,0.93359 14.461,2.5781 0.78125,0.26953 1.1914,1.125 0.91406,1.9023 z M 14.485,52.5508 c 5.0938,-1.1016 10.129,-1.6484 15.043,-1.4961 4.9414,0.15234 9.7461,1.0195 14.348,2.7383 0.77344,0.28906 1.1641,1.1484 0.87891,1.918 -0.28906,0.77344 -1.1484,1.1641 -1.918,0.87891 -4.2852,-1.6016 -8.7695,-2.4062 -13.391,-2.5547 -4.6484,-0.14453 -9.4453,0.37891 -14.328,1.4375 -0.80859,0.17578 -1.6055,-0.33984 -1.7773,-1.1484 -0.17969,-0.80469 0.33594,-1.6016 1.1445,-1.7734 z m 30.262,-4.8164 c -0.30469,0.76953 -1.1719,1.1445 -1.9414,0.84375 -4.2188,-1.668 -8.6445,-2.5312 -13.242,-2.6953 -4.6445,-0.16797 -9.4727,0.36328 -14.441,1.4727 -0.80469,0.17578 -1.6016,-0.33203 -1.7773,-1.1328 -0.17578,-0.80469 0.33203,-1.6016 1.1328,-1.7773 5.2148,-1.1641 10.289,-1.7227 15.191,-1.543 4.9492,0.17969 9.707,1.1016 14.234,2.8945 0.76953,0.29688 1.1484,1.168 0.84375,1.9375 z M 14.466,36.3204 c 5.3203,-1.2266 10.438,-1.7891 15.34,-1.5859 4.9453,0.20703 9.6562,1.1914 14.121,3.0586 0.76172,0.31641 1.125,1.1914 0.80859,1.9531 -0.31641,0.76172 -1.1914,1.125 -1.9531,0.80859 -4.1406,-1.7305 -8.5078,-2.6445 -13.094,-2.8359 -4.625,-0.19141 -9.4844,0.34766 -14.555,1.5156 -0.80469,0.18359 -1.6055,-0.32031 -1.7891,-1.125 -0.1875,-0.80078 0.31641,-1.6016 1.1211,-1.7891 z m -0.01563,-16.227 c 5.543,-1.3516 10.746,-1.9297 15.637,-1.6758 4.9414,0.25781 9.5586,1.3633 13.895,3.3789 0.75,0.34766 1.0781,1.2344 0.73047,1.9844 -0.34766,0.75 -1.2344,1.0781 -1.9844,0.73047 -3.9883,-1.8555 -8.2422,-2.875 -12.797,-3.1094 -4.6016,-0.23828 -9.5195,0.3125 -14.781,1.5938 -0.80078,0.19531 -1.6094,-0.30078 -1.8008,-1.1016 -0.19531,-0.80078 0.29688,-1.6055 1.1016,-1.8008 z m 0.0039,8.1133 c 5.4258,-1.2891 10.582,-1.8594 15.488,-1.6289 4.9453,0.23047 9.6172,1.2773 14.016,3.2188 0.75781,0.33203 1.0977,1.2148 0.76562,1.9727 -0.33203,0.75781 -1.2148,1.0977 -1.9727,0.76562 -4.0625,-1.793 -8.375,-2.7578 -12.938,-2.9727 -4.6055,-0.21484 -9.4922,0.33203 -14.668,1.5586 -0.80469,0.19141 -1.6094,-0.30859 -1.8008,-1.1094 -0.19141,-0.80859 0.30469,-1.6172 1.1094,-1.8047 z m 74.887,49.285 c 0.50781,0.14453 1.0078,-0.23438 1.0078,-0.76172 v -59.715 c -15.586,-4.5859 -28.539,-3.9922 -38.852,1.7852 v 60.77 c 10.094,-5.6562 22.707,-6.3477 37.844,-2.0781 z m -23.418,-56.289 c 0,-1.0625 0.86719,-1.9297 1.9297,-1.9297 h 4.6406 c 1.0625,0 1.9297,0.86719 1.9297,1.9297 v 2.8789 h -8.5039 z m 0,5.8633 h 8.5039 v 32.652 h -8.5039 z m 3.2344,41.02 -2.5312,-5.3828 h 7.0977 l -2.5312,5.3828 c -0.19141,0.40234 -0.57422,0.64844 -1.0195,0.64844 -0.44141,0 -0.82422,-0.24219 -1.0156,-0.64844 z m 27.09,-43.188 v 60.766 c -13.891,-4.0898 -28.66,-8.6406 -42.293,-0.71094 -2.4609,1.4297 -5.4492,1.4297 -7.9102,0 -13.633,-7.9297 -28.402,-3.3789 -42.293,0.71094 l 0.00391,-60.766 2.9023,-3.8789 v 55.711 c 0,1.1953 0.55078,2.3008 1.5039,3.0195 0.95312,0.7187 2.1641,0.94922 3.3164,0.625 11.871,-3.3477 24.984,-4.3555 36.031,2.0742 1.5586,0.90625 3.4297,0.90625 4.9883,0 11.051,-6.4297 24.164,-5.4219 36.031,-2.0742 1.1484,0.32422 2.3633,0.09766 3.3164,-0.625 0.9531,-0.722656 1.5039,-1.8281 1.5039,-3.0195 v -55.711 z"
         id="path2507"
         style="fill:#f1f2f6;fill-opacity:0.501961;stroke-width:11.2505" /></g><g
       style="clip-rule:evenodd;fill:#f1f2f6;fill-opacity:0.501961;fill-rule:evenodd;stroke-width:9.30236;stroke-linejoin:round;stroke-miterlimit:2"
       id="g2884"
       transform="matrix(0.02844258,0,0,0.02844258,38.452887,4.6288196)"><path
         d="m -89.255636,302.30321 c 1.047802,0.007 2.051424,0.4256 2.792911,1.16709 0.747378,0.74811 1.167088,1.76131 1.167088,2.81868 v 1.56692 c 0,1.05664 -0.41971,2.07057 -1.167088,2.81795 -0.747378,0.74737 -1.761308,1.16782 -2.817946,1.16782 h -48.050889 c -1.05737,0 -2.07131,-0.42045 -2.81868,-1.16782 -0.74738,-0.74738 -1.16709,-1.76131 -1.16709,-2.81795 v -1.56692 c 0,-1.05737 0.41971,-2.07057 1.16709,-2.81868 0.74737,-0.74738 1.76131,-1.16709 2.81794,-1.16709 h 48.052365 z m -28.556474,-35.8874 c 1.36885,0.63987 2.896,0.99773 4.50563,0.99773 1.61036,0 3.13677,-0.35712 4.50562,-0.99699 v 27.89818 h 7.58202 c 1.05664,-7.3e-4 2.070569,0.41971 2.817947,1.16709 0.747378,0.74738 1.167088,1.76131 1.167088,2.81795 v 1.42627 h -32.145355 v -1.42627 c 0,-1.05664 0.41971,-2.07057 1.16782,-2.81795 0.74738,-0.74738 1.76057,-1.16782 2.81795,-1.16709 h 7.58128 z m -5.15801,-14.16999 c -0.64061,1.36884 -0.99847,2.89599 -0.99847,4.50635 0,1.60963 0.35786,3.13678 0.99773,4.50563 h -11.19594 l 6.20581,19.84417 c 0.62,0.52943 1.01393,1.31657 1.01393,2.19575 0,5.65283 -4.58293,10.23576 -10.23576,10.23576 -5.65357,0 -10.23577,-4.58293 -10.23577,-10.23576 0,-0.87918 0.3932,-1.66632 1.0132,-2.19575 l 6.20581,-19.84417 h -2.1442 c -2.44242,0 -4.42315,-1.98074 -4.42315,-4.42316 v -0.16567 c 0,-2.44242 1.98073,-4.42315 4.42315,-4.42315 z m 19.32875,0 h 19.372182 c 2.443153,0 4.423152,1.98073 4.423152,4.42315 v 0.16567 c 0,2.44242 -1.979999,4.42316 -4.423152,4.42316 h -2.143466 l 6.205079,19.84417 c 0.620729,0.52943 1.013931,1.31657 1.013931,2.19575 0,5.65283 -4.582938,10.23576 -10.235767,10.23576 -5.653565,0 -10.235766,-4.58293 -10.235766,-10.23576 0,-0.87918 0.393202,-1.66632 1.013195,-2.19575 l 6.205815,-19.84417 h -11.195203 c 0.63987,-1.36885 0.99699,-2.896 0.99699,-4.50563 0,-1.61036 -0.35712,-3.13751 -0.99699,-4.50635 z m 8.228517,28.16694 h 11.966885 l -5.983443,-19.13435 z m -47.754147,0 h 11.96762 l -5.98344,-19.13435 z m 29.86052,-31.74552 c -4.46145,0 -8.08494,3.62202 -8.08494,8.08493 0,4.46145 3.62349,8.0842 8.08494,8.0842 4.46291,0 8.08493,-3.62275 8.08493,-8.0842 0,-4.46291 -3.62202,-8.08493 -8.08493,-8.08493 z m -4.50563,-1.57944 v -2.98362 c 0,-2.44315 1.98,-4.42315 4.42316,-4.42315 h 0.16493 c 2.44316,0 4.42316,1.98 4.42316,4.42315 v 2.98289 c -1.36885,-0.63988 -2.896,-0.997 -4.50562,-0.997 -1.60963,0 -3.13678,0.35786 -4.50563,0.99773 z"
         id="path2869"
         style="fill:#f1f2f6;fill-opacity:0.501961;stroke-width:9.30239" /></g><g
       id="g3246"
       transform="matrix(0.02418658,0,0,0.02418658,41.299305,8.3733657)"
       style="fill:#f1f2f6;fill-opacity:0.501961;stroke-width:10.9393"
       inkscape:export-filename="..\..\..\..\Desktop\g3246.png"
       inkscape:export-xdpi="575.99994"
       inkscape:export-ydpi="575.99994"><path
         d="m 161.85769,-92.409407 c -1.082,-1.082 -2.832,-1.082 -3.918,0 -1.082,1.082 -2.3594,1.9453 -3.75,2.7227 l -15.859,-15.859003 c 0.77734,-1.3906 1.6406,-2.668 2.7227,-3.75 1.082,-1.082 1.082,-2.832 0,-3.918 -1.082,-1.082 -2.832,-1.082 -3.918,0 -2,2 -3.6094,4.3906 -4.75,7.0547 v 0.0547 0.0273 c -2.1953,5 -3.0547,11.332003 -2.5547,18.859003 -7.3594,-0.47266 -13.582,0.35938 -18.555,2.4453 -0.19531,0.05469 -0.39062,0.14062 -0.58203,0.25 -2.6094,1.168 -4.918,2.668 -6.832,4.582 -1.918,1.918 -3.418,4.2227 -4.582005,6.832 -0.10938,0.19531 -0.19531,0.39062 -0.25,0.58203 -2.1094,5 -2.918,11.195 -2.4453,18.555 -7.5273,-0.5 -13.891,0.35938 -18.859,2.5547 h -0.05469 c -2.6953,1.168 -5.082,2.7773 -7.082,4.7773 -1.082,1.082 -1.082,2.832 0,3.918 0.55469,0.55469 1.25,0.80469 1.9727,0.80469 0.72266,0 1.418,-0.27734 1.9727,-0.80469 1.082,-1.082 2.3594,-1.9453 3.75,-2.7227 l 15.859,15.859 c -0.77734,1.3906 -1.6406,2.668 -2.7227,3.75 -1.082,1.082 -1.082,2.832 0,3.918 0.55469,0.55469 1.25,0.80469 1.9727,0.80469 0.72266,0 1.418,-0.27734 1.9727,-0.80469 2,-2 3.6094,-4.3906 4.750005,-7.0547 v -0.05469 -0.02734 c 2.1953,-5 3.0547,-11.332 2.5547,-18.832 1.3594,0.08203 2.668,0.14063 3.9453,0.14063 5.7227,0 10.641,-0.89063 14.723,-2.6406 0.10938,-0.02734 0.19531,-0.08203 0.30469,-0.10937 2.6953,-1.1953 5.0547,-2.75 7.0273,-4.7227 1.9727,-1.9727 3.418,-4.2227 4.582,-6.832 0.10937,-0.19531 0.19531,-0.39062 0.25,-0.58203 2.1094,-5 2.918,-11.195 2.4453,-18.582 1.3906,0.08203 2.75,0.14062 4.082,0.14062 5.7773,0 10.723,-0.91797 14.777,-2.6953 h 0.0547 c 2.6953,-1.168 5.082,-2.7773 7.082,-4.7773 1.082,-1.082 1.082,-2.832 0,-3.918 z m -31.641,10.809 c 0.39062,5.0273 0.16797,9.418 -0.72266,13.109 l -12.391,-12.391 c 3.6953,-0.89062 8.082,-1.1094 13.109,-0.72266 z m -33.359005,33.305 c 0.39062,5.0273 0.22266,9.4727 -0.66797,13.168 l -12.445,-12.445 c 3.6953,-0.89062 8.082,-1.1094 13.109,-0.72266 z m 5.195305,-5.1406 c -0.39062,-5.0273 -0.16797,-9.418 0.72266,-13.109 l 12.391,12.391 c -3.6953,0.89062 -8.082,1.1094 -13.109,0.72266 z m 18.805,-2.8867 -15.918,-15.918 c 0.77734,-1.3906 1.668,-2.668 2.75,-3.75 1.082,-1.082 2.332,-1.9727 3.75,-2.75 l 15.918,15.918 c -0.77734,1.3906 -1.668,2.668 -2.75,3.75 -1.082,1.082 -2.332,1.9727 -3.75,2.75 z m 14.555,-30.418 c -0.39062,-5.0273 -0.22266,-9.4727 0.66797,-13.168 l 12.445,12.445 c -3.6953,0.89062 -8.082,1.1094 -13.109,0.72266 z"
         id="path3231"
         style="fill:#f1f2f6;fill-opacity:0.501961;stroke-width:10.9393" /></g><g
       id="g3517"
       transform="matrix(0.02398945,0,0,0.02398945,40.94237,11.060001)"
       style="fill:#f1f2f6;fill-opacity:0.501961;stroke-width:11.0291"><path
         d="m 130.7573,-33.16017 c -2.6719,-3.3828 -8.3359,-1.3828 -8.2852,2.9648 v 3.4375 c -22.644997,2.4336 -37.784997,28.0389996 -28.561997,49.25 13.245997,32.008 59.792997,28.574 68.155997,-5.0469 5.3125,-20.3550004 -9.3086,-41.816 -30.219,-44.203 v -3.1562 c 45.156,6.6484 45.695,69.98 0.85156,77.441 -0.57422,-0.70313 -1.4375,-1.1641 -2.4141,-1.1641 h -6.25 c -0.96484,0 -1.8125,0.44531 -2.3867,1.1328 -7.375,-1.0508 -14.344,-4.1602 -20.027,-9.0742 -1.5469,-1.332 -3.585897,1.0195 -2.042997,2.3633 6.062497,5.2461 13.479997,8.5859 21.335997,9.7656 v 5.1914 h -4.6875 c -2.0469,0.03125 -2.0586,3.0898 0,3.125 h 21.875 c 2.0469,-0.03125 2.0586,-3.0898 0,-3.125 h -4.6875 v -5.1523 c 49.039,-8.5508 47.035,-78.129 -2.6523,-83.75 z m -5.1602,2.9688 c 0.0352,-2.0547 3.0898,-2.0547 3.125,0 v 3.125 h -3.125 z m 0,6.2969 v 6.25 c -13.406,0.78125 -24.172,11.5469996 -24.953,24.9529996 H 94.394103 C 95.175353,-9.5504704 108.7381,-23.11347 125.5971,-23.89447 Z m 9.2188,0.85938 c -0.98047,2.6992 -0.33594,5.6055 -0.71875,8.4062 -0.72656,2.4453 -2.2734,5.0507996 -1.6406,7.6874996 0.34375,2.1328 1.5625,4.2695 1.4531,6.51560004 -0.10547,1.71089996 -1.6484,3.94919996 -1.6719,5.85939996 -0.0156,1.5781 0.92188,2.7344 1.6562,3.6875 0.57031,0.73828 1.1602,1.3203004 1.0312,2.1875004 -2.0547,2 -9.5312,1.5664 -11.656,3.7969 -3.1875,2.125 -2.9531,4.625 -2.7188,5.6094 1.6367,5.2773 9.0117,5.8555 13.234,3.1562 1.7188,-0.84375 3.1875,-1.5625 4.5781,-1.1875 1.2617,0.35547 2.4961,1.3008 3.8438,1.6094 2.3906,0.64063 4.6094,-0.64062 5.3906,-3.1406 0.46484,-1.6836 0.89453,-4.5625 2.1875,-4.3594 2.8555,-0.10156 6.1758,0.0625 8.9062,1.1094 -4.0938,14.609 -17.941,24.566 -33.219,23.734 -0.21875,-2.8203 -2.1172,-5.2539 -3.0781,-7.8125 -0.39062,-0.92187 0.0156,-2.5039 0.0781,-3.6094 0.32812,-3.5938 -3,-4.1875 -4.7812,-4.5156 -2.3867,-0.24609 -2.9141,-0.9375 -3.9219,-3.0156 -1.8672,-4.168 -4.793,-5.4336 -8.8438,-3.5469 -2.2812,0.875 -2.625,0.78125 -3.1094,0 -0.51953,-0.76953 -1.3906,-1.2578 -2.171897,-1.2812 -1.6172,-0.02734 -2.3203,1.25 -3.3906,2.0469 -1.0938,-3.0469 -1.7188,-6.2188 -1.8594,-9.4688 h 32.765997 c 0.85938,0 1.5625,-0.7031304 1.5625,-1.5625004 V -23.89519 c 2.0469,0.07813 4.0938,0.375 6.0938,0.85938 z"
         id="path3502"
         style="fill:#f1f2f6;fill-opacity:0.501961;stroke-width:11.0291" /></g><g
       id="g3894"
       transform="matrix(0.03196684,0,0,0.03196684,40.984245,9.8534865)"
       style="fill:#f1f2f6;fill-opacity:0.507205;stroke-width:8.27679"><g
         id="g3874"
         style="fill:#f1f2f6;fill-opacity:0.507205;stroke-width:8.27679"
         transform="translate(-158.40596,-60.237641)"><g
           id="g3872"
           style="fill:#f1f2f6;fill-opacity:0.507205;stroke-width:8.27679"><path
             d="m 68.1875,11.000488 c 0,-1.8613278 -1.51416,-3.3749997 -3.375,-3.3749997 h -3.625 V 4.7084961 c 0,-0.5522461 -0.447754,-1 -1,-1 -0.552246,0 -1,0.4477539 -1,1 v 2.9169922 h -3.625 c -1.86084,0 -3.375,1.5136719 -3.375,3.3749997 0,1.464356 0.943359,2.701661 2.25,3.167481 v 2.351074 h -36.875 v -2.351074 c 1.306641,-0.46582 2.25,-1.703125 2.25,-3.167481 0,-1.8613278 -1.51416,-3.3749997 -3.375,-3.3749997 h -3.625 V 4.7084961 c 0,-0.5522461 -0.447754,-1 -1,-1 -0.552246,0 -1,0.4477539 -1,1 v 2.9169922 h -3.625 c -1.8608398,0 -3.375,1.5136719 -3.375,3.3749997 0,1.464356 0.9433594,2.701661 2.25,3.167481 V 57.83252 c -1.3066406,0.46582 -2.25,1.703125 -2.25,3.167968 0,1.86084 1.5141602,3.375 3.375,3.375 h 3.625 v 2.916016 c 0,0.552734 0.447754,1 1,1 0.552246,0 1,-0.447266 1,-1 v -2.916016 h 3.625 c 1.86084,0 3.375,-1.51416 3.375,-3.375 0,-1.464843 -0.943359,-2.702148 -2.25,-3.167968 v -2.351563 h 36.875 v 2.351562 c -1.306641,0.465821 -2.25,1.703125 -2.25,3.167969 0,1.86084 1.51416,3.375 3.375,3.375 h 3.625 v 2.916016 c 0,0.552734 0.447754,1 1,1 0.552246,0 1,-0.447266 1,-1 v -2.916016 h 3.625 c 1.86084,0 3.375,-1.51416 3.375,-3.375 0,-1.464843 -0.943359,-2.702148 -2.25,-3.167968 V 14.167969 c 1.306641,-0.465821 2.25,-1.703125 2.25,-3.167481 z m -52.625,6.518555 c 0,11.901596 0,21.853157 0,40.106445 h -7.5 v -43.25 h 7.5 z m 9.85791,18.493164 1.199219,-0.02197 c -0.07324,-1.174316 -0.309082,-2.384277 -0.702148,-3.598144 -0.10254,-0.316407 0.07422,-0.657715 0.393554,-0.761719 0.316895,-0.103516 0.658692,0.06982 0.761719,0.385742 0.429199,1.303711 0.685547,2.632813 0.761719,3.952149 l 2.213867,-0.04053 c 0.02734,-1.295898 0.234863,-2.633301 0.616699,-3.977051 0.09131,-0.320312 0.431153,-0.506347 0.754395,-0.414062 0.154785,0.04443 0.283203,0.145996 0.36084,0.286133 0.07861,0.141601 0.09717,0.305176 0.05273,0.460937 -0.348145,1.201172 -0.539551,2.418946 -0.570313,3.622071 l 1.199219,-0.02246 c 0.0039,0 0.0078,0 0.01172,0 0.331543,0 0.604492,0.263672 0.61084,0.592773 0.0059,0.333008 -0.263672,0.608398 -0.600098,0.614746 l -1.199219,0.02197 c 0.07422,1.201172 0.310547,2.411133 0.701661,3.597656 0.104003,0.318848 -0.06445,0.65625 -0.383301,0.768555 -0.351773,0.109264 -0.672789,-0.08408 -0.771485,-0.392578 -0.430664,-1.329102 -0.686523,-2.658203 -0.761718,-3.951172 l -2.213868,0.04004 c -0.02783,1.321289 -0.235351,2.65918 -0.616699,3.977539 -0.09677,0.346153 -0.453203,0.513454 -0.749512,0.419434 -0.320312,-0.09961 -0.5083,-0.4375 -0.418457,-0.75293 0.348145,-1.227051 0.54004,-2.444824 0.570313,-3.621582 l -1.199219,0.02197 c -0.336914,0.0024 -0.608887,-0.254395 -0.615234,-0.592286 -0.0059,-0.338867 0.254394,-0.608886 0.592773,-0.615234 z M 23.662109,24.932129 c 0.327637,0.0078 0.589356,0.27832 0.584961,0.602539 -0.0047,0.306156 -0.234691,0.573608 -0.602539,0.584961 l -0.763183,-0.01221 -0.01953,1.480957 c -0.0049,0.325195 -0.273437,0.588867 -0.598633,0.589844 h -0.002 l -0.0024,-4.89e-4 c -0.321579,-0.01398 -0.580654,-0.260513 -0.582031,-0.600586 l 0.01953,-1.48291 -0.76709,-0.0093 c -0.2908,-0.0051 -0.571993,-0.226395 -0.584961,-0.598145 0.0083,-0.329101 0.273926,-0.589843 0.594239,-0.589843 0.0024,0 0.0054,0 0.0083,0 l 0.76709,0.0098 0.03076,-2.679687 -0.575684,0.561523 c -0.276529,0.26461 -0.717388,0.202402 -0.909668,-0.100586 -0.153808,-0.235351 -0.120117,-0.551758 0.08057,-0.752441 l 1.634765,-1.583496 c 0.264551,-0.236704 0.642357,-0.151509 0.810059,0.03906 l 1.560058,1.595703 c 0.229004,0.2417 0.22461,0.61084 -0.0088,0.841797 -0.237304,0.226563 -0.613769,0.221192 -0.841797,-0.0088 l -0.5625,-0.576172 -0.03662,2.678711 z m 1.297852,22.15918 0.973633,-0.0068 c 0.279297,-1.5542 1.611816,-2.681641 3.200195,-2.694336 0.0088,0 0.01758,0 0.02637,0 1.577149,0 2.913574,1.103515 3.215332,2.644531 l 0.973145,-0.0078 c 0.002,0 0.0034,0 0.0049,0 0.333008,0 0.605469,0.270019 0.608399,0.603515 0.0024,0.335938 -0.268555,0.61084 -0.603516,0.613281 l -1.52539,0.01172 c -0.002,0 -0.0034,0 -0.0049,0 -0.337469,0 -0.605398,-0.271389 -0.608399,-0.603515 -0.0091,-1.138165 -0.936451,-2.044922 -2.060058,-2.044922 -0.0054,0 -0.01074,0 -0.01611,0 -1.140084,0.0091 -2.054007,0.941185 -2.044922,2.07666 0.0024,0.335449 -0.268555,0.61084 -0.603516,0.613281 l -1.525391,0.01172 c -0.002,0 -0.0034,0 -0.0049,0 -0.331074,0 -0.605357,-0.266396 -0.608399,-0.604004 -0.0031,-0.338593 0.269257,-0.609253 0.603516,-0.613281 z m 8.411133,3.705566 -8.388184,0.06494 c -0.002,0 -0.0034,0 -0.0049,0 -0.333496,0 -0.605957,-0.270019 -0.608886,-0.603515 -0.0024,-0.335938 0.268554,-0.611328 0.604004,-0.61377 l 8.388183,-0.06494 c 0.0015,0 0.0029,0 0.0044,0 0.333496,0 0.606445,0.270508 0.609375,0.604004 0.0024,0.335449 -0.268555,0.61084 -0.604004,0.613281 z m 2.52832,-27.370117 c 0.01316,1.328188 -1.047611,2.41398 -2.381348,2.428222 -9.76e-4,0 -0.002,0 -0.0034,0 -0.341797,0 -0.621093,-0.273437 -0.623535,-0.611328 -0.0015,-0.342773 0.274414,-0.624511 0.616211,-0.628906 0.638462,-0.0051 1.160057,-0.518578 1.151856,-1.176758 -0.0042,-0.668668 -0.553784,-1.165804 -1.176758,-1.152344 -0.666023,0.0052 -1.159214,0.545414 -1.154297,1.172852 l 0.03906,4.387695 c 0.0073,0.240723 -0.132812,0.465332 -0.356445,0.569336 -0.07959,0.03711 -0.16748,0.05664 -0.254883,0.05762 -0.0015,0 -0.0024,0 -0.0034,0 -0.164062,0 -0.318847,-0.0625 -0.436523,-0.176757 -0.119141,-0.115235 -0.185547,-0.27002 -0.186523,-0.435059 l -0.03955,-4.387207 c -0.01025,-0.641602 -0.53711,-1.161133 -1.179688,-1.157227 -0.641113,0.0039 -1.160156,0.533204 -1.155762,1.179688 0.0041,0.647461 0.544415,1.15625 1.169434,1.15625 0.0083,0 0.01514,0 0.02246,0 0.786735,0 0.838905,1.213602 0,1.240234 -0.0024,0 -0.0044,0 -0.0068,0 -1.346207,0 -2.411194,-1.066442 -2.425293,-2.385742 -0.01025,-1.325195 1.060059,-2.415039 2.385742,-2.430176 0.0093,0 0.01904,0 0.02881,0 0.672363,0 1.307617,0.28125 1.76416,0.777832 0.428227,-0.489401 1.061119,-0.801504 1.77832,-0.809082 0.0088,0 0.01807,0 0.02734,0 1.277195,0 2.385445,1.016041 2.400879,2.380371 z m 2.882813,-2.689942 c 0.966796,0.0166 1.74121,0.819336 1.724609,1.790039 l -0.0083,0.542969 c -0.02141,0.692311 1.127117,0.75177 1.134766,0.02246 l 0.01269,-0.541992 c 0.01791,-0.961159 0.792435,-1.725586 1.758301,-1.725586 0.01074,0 0.02148,4.88e-4 0.03272,4.88e-4 0.978481,0.01733 1.747238,0.825104 1.720703,1.788575 -0.0033,0.365255 -0.327355,0.624553 -0.623535,0.600097 -0.335484,-0.005 -0.606724,-0.284044 -0.59961,-0.623535 9.65e-4,-0.284183 -0.212745,-0.531668 -0.522461,-0.541992 -4.88e-4,0 -0.0015,0 -0.002,0 -0.285427,0 -0.52988,0.217457 -0.539062,0.522461 l -0.0098,0.545898 c -0.0054,0.37207 -0.126465,0.72168 -0.351562,1.014649 0.503906,0.427246 0.792968,1.060546 0.77832,1.714843 -0.03238,1.24211 -1.045803,2.148438 -2.194824,2.148438 -0.01221,0 -0.02441,0 -0.03613,0 -1.184097,-0.02243 -2.169583,-0.996178 -2.148926,-2.231445 0.01608,-0.643244 0.310925,-1.236113 0.73877,-1.601563 -0.529625,-0.66305 -0.33857,-1.311743 -0.368165,-1.65918 0.0082,-0.296928 -0.228515,-0.535076 -0.516601,-0.541015 -4.88e-4,0 -9.77e-4,0 -0.0015,0 -0.318268,0 -0.539547,0.241546 -0.540527,0.519531 -0.0084,0.409498 -0.427311,0.72164 -0.837891,0.5625 -0.242676,-0.09473 -0.395508,-0.325195 -0.390137,-0.586914 0.01834,-0.969938 0.831582,-1.746294 1.79004,-1.719727 z m -1.401856,17.494141 c 0.239182,-0.208878 0.576492,-0.156735 0.757813,0.05371 l 0.803222,0.924316 1.302735,-2.024902 c 0.27164,-0.424698 0.925617,-0.26788 0.984863,0.226562 l 0.197754,1.623047 1.463379,-1.941894 c 0.117676,-0.154785 0.310547,-0.233887 0.499023,-0.209473 0.190918,0.0249 0.354981,0.151367 0.428223,0.330078 l 0.670898,1.641602 1.59375,-1.860352 c 0.193337,-0.226738 0.53376,-0.251499 0.757813,-0.05859 0.225624,0.19339 0.251716,0.531933 0.0581,0.757813 l -2.166015,2.528809 c -0.261349,0.303501 -0.752621,0.225769 -0.905762,-0.145997 l -0.645996,-1.582031 -1.696289,2.25 c -0.290157,0.385964 -0.904484,0.222199 -0.962403,-0.258301 l -0.179199,-1.467285 -0.884765,1.375 c -0.195385,0.303005 -0.625016,0.329788 -0.857911,0.06201 l -1.272949,-1.46582 c -0.197662,-0.228386 -0.167671,-0.566834 0.05371,-0.758301 z m 9.479981,11.916016 c -0.864746,0 -1.697754,-0.356446 -2.30127,-0.98584 l -3.573242,0.07568 c -0.591797,0.670899 -1.436035,1.06543 -2.323731,1.083985 -0.0039,0 -0.0078,0 -0.01123,0 -0.299465,0 -0.540474,-0.241417 -0.546387,-0.535156 -0.006,-0.302163 0.229725,-0.549992 0.534668,-0.557129 1.157261,-0.02423 2.083855,-0.988499 2.058594,-2.147461 -0.02272,-1.085572 -0.88406,-2.059082 -2.158691,-2.059082 -0.295899,0 -0.539551,-0.237305 -0.546387,-0.53418 -0.0059,-0.301758 0.233887,-0.551758 0.534668,-0.557617 0.884144,-0.01965 1.746948,0.335056 2.367187,0.980469 l 3.573243,-0.0752 c 0.589355,-0.667968 1.433593,-1.061035 2.324218,-1.080078 0.0039,0 0.0078,0 0.01123,0 0.295898,0 0.539551,0.237793 0.546387,0.535157 0.0059,0.300781 -0.233887,0.550781 -0.535157,0.557617 -1.159179,0.02441 -2.083008,0.987304 -2.058594,2.147461 0.0249,1.160156 0.990235,2.095214 2.14795,2.058593 0.34349,0.01112 0.551559,0.256711 0.557129,0.535157 0.0057,0.28337 -0.201684,0.557617 -0.600586,0.557617 z m 0.653808,-17.107422 -2.166504,2.529297 c -0.268787,0.312519 -0.757351,0.216293 -0.905761,-0.146485 L 43.79541,33.840332 42.099609,36.09082 c -0.292041,0.387093 -0.904831,0.219326 -0.962402,-0.2583 l -0.179199,-1.467774 -0.885254,1.375488 c -0.200691,0.313515 -0.635483,0.317864 -0.85791,0.06152 l -1.272949,-1.46582 c -0.193848,-0.224122 -0.169922,-0.563965 0.0542,-0.758301 0.107422,-0.09424 0.240234,-0.139649 0.389648,-0.130371 0.143067,0.01025 0.273926,0.07568 0.368164,0.184082 l 0.803223,0.924316 1.302246,-2.024414 c 0.09717,-0.149902 0.261231,-0.242188 0.438965,-0.246582 0.04297,-0.002 0.08789,0.0029 0.132812,0.01318 0.220215,0.05029 0.386231,0.234863 0.413574,0.458984 l 0.198243,1.623535 1.46289,-1.941406 c 0.1167,-0.154297 0.305176,-0.23584 0.499024,-0.209961 0.190918,0.02539 0.35498,0.151367 0.428222,0.330078 l 0.670899,1.641602 1.593261,-1.860352 c 0.193848,-0.224609 0.533692,-0.250488 0.758301,-0.05859 0.225098,0.19336 0.250977,0.533203 0.05859,0.757813 z m 2.943359,-4.253907 c -0.0039,0 -0.0078,0 -0.01123,0 -1.40625,0 -2.552734,-1.138671 -2.559082,-2.543457 -0.0054,-1.202636 0.830078,-2.24121 1.997559,-2.501464 l -0.0078,-1.875489 -0.556152,0.0024 c -9.77e-4,0 -0.002,0 -0.0029,0 -0.327015,0 -0.588833,-0.25717 -0.589844,-0.587403 -0.002,-0.321003 0.254204,-0.591262 0.587403,-0.592285 l 0.556152,-0.0024 -0.0034,-0.884766 c -0.002,-0.327522 0.26067,-0.591276 0.587402,-0.592285 0.299515,-0.01113 0.591225,0.242048 0.592285,0.587402 l 0.0039,0.884278 0.473144,-0.002 c 4.88e-4,0 0.0015,0 0.002,0 0.324219,0 0.588867,0.263183 0.590821,0.587402 9.76e-4,0.330566 -0.256836,0.591308 -0.587403,0.592773 l -0.473144,0.002 0.0078,1.893067 c 1.121582,0.27832 1.931153,1.302734 1.936035,2.466797 0.0061,1.409513 -1.137729,2.559379 -2.543457,2.565429 z M 63.9375,57.625488 h -7.5 c 0,-12.620315 0,-30.630703 0,-43.25 h 7.5 z"
             id="path3864"
             style="fill:#f1f2f6;fill-opacity:0.507205;stroke-width:8.27679" /><path
             d="m 43.82666,45.941406 -2.245117,0.04736 c 0.25526,0.65966 0.285168,1.436431 0.04541,2.141601 l 2.245117,-0.04687 C 43.600719,47.384286 43.601399,46.60579 43.82666,45.941406 Z"
             id="path3866"
             style="fill:#f1f2f6;fill-opacity:0.507205;stroke-width:8.27679" /><path
             d="m 50.446777,24.856445 c -0.002,0 -0.0044,0 -0.0063,0 -0.760743,0.0034 -1.376954,0.622559 -1.373536,1.380371 0.0034,0.75586 0.622071,1.368653 1.379395,1.368653 0.002,0 0.0039,0 0.0059,0 0.758301,-0.0034 1.372559,-0.622559 1.369141,-1.380371 -0.0034,-0.75586 -0.619629,-1.368653 -1.374512,-1.368653 z"
             id="path3868"
             style="fill:#f1f2f6;fill-opacity:0.507205;stroke-width:8.27679" /><path
             d="m 41.080566,26.76709 c 0.534668,0.02197 0.97168,-0.41211 0.984375,-0.944824 0.0076,-0.519923 -0.405235,-0.958281 -0.935058,-0.981934 -0.699482,0.08565 -0.982956,0.473143 -0.993652,0.948242 -0.01239,0.542851 0.434913,0.975565 0.944335,0.978516 z"
             id="path3870"
             style="fill:#f1f2f6;fill-opacity:0.507205;stroke-width:8.27679" /></g></g></g><g
       id="g4553"
       transform="matrix(0.02320016,0,0,0.02320016,39.011831,13.752575)"
       style="fill:#f1f2f6;fill-opacity:0.501961;stroke-width:11.4044"><path
         d="M 69.328,44.805 V 6.821 c 0,-1.5625 -1.2734,-2.8359 -2.8359,-2.8359 H 6.8201 c -1.5625,0 -2.8359,1.2734 -2.8359,2.8359 v 37.988 c 0,1.5586 1.2695,2.832 2.832,2.8359 l 5.6172,0.0078 c 0.64453,0 1.2891,0.26562 1.7539,0.78516 l 8.4648,9.457 c 1.1562,1.293 3.2969,0.47656 3.2969,-1.2617 v -6.6289 c 0,-1.2656 1.0156,-2.3633 2.3633,-2.3633 h 38.184 c 1.5625,0 2.8359,-1.2734 2.8359,-2.8359 z m 4.7227,-1.4336 c 0,-1.7344 2.1406,-2.5508 3.2969,-1.2617 l 8.4648,9.4609 c 0.46484,0.51953 1.1055,0.78125 1.7539,0.78125 l 5.6172,0.0078 c 1.5625,0.0039 2.832,1.2734 2.832,2.8359 v 37.988 c 0,1.5625 -1.2734,2.8359 -2.8359,2.8359 h -59.672 c -1.5625,0 -2.8359,-1.2734 -2.8359,-2.8359 v -37.984 c 0,-1.5625 1.2734,-2.8359 2.8359,-2.8359 h 38.18 c 1.3477,0 2.3633,-1.0977 2.3633,-2.3633 z m -26.098,-6.9141 c 1.2695,0.28906 2.0625,1.5547 1.7734,2.8242 -0.28906,1.2695 -1.5547,2.0625 -2.8242,1.7734 -3.9375,-0.90625 -7.3711,-2.3281 -10.242,-4.3203 -2.8672,1.9883 -6.3047,3.4141 -10.246,4.3203 -1.2695,0.28906 -2.5312,-0.50391 -2.8242,-1.7734 -0.28906,-1.2695 0.50391,-2.5312 1.7734,-2.8242 2.8906,-0.66406 5.4336,-1.6367 7.5977,-2.9453 -1.5352,-1.6758 -2.8047,-3.6055 -3.7852,-5.793 -0.53125,-1.1875 0.0039,-2.5781 1.1914,-3.1094 1.187493,-0.5313 2.5781,0.0039 3.1094,1.1914 0.8125,1.8164 1.8828,3.4062 3.1836,4.7695 2.2422,-2.3516 3.7812,-5.3633 4.5625,-9.0898 h -15.332 c -1.3047,0 -2.3633,-1.0586 -2.3633,-2.3633 0,-1.3047 1.0586,-2.3633 2.3633,-2.3633 h 8.4062 v -3.8828 c 0,-1.3047 1.0586,-2.3633 2.3633,-2.3633 1.3047,0 2.3594,1.0586 2.3594,2.3633 v 3.8828 h 8.4102 c 1.3047,0 2.3633,1.0586 2.3633,2.3633 0,1.3047 -1.0586,2.3633 -2.3633,2.3633 h -1.4102 c -0.86328,4.9102 -2.7852,8.8945 -5.6602,12.035 2.1602,1.3047 4.7031,2.2773 7.5977,2.9414 z m 12.418,37.5 h 5.9531 L 63.3472,66.805 Z m 7.918,4.7227 h -9.8828 l -3.6484,8.7734 c -0.5,1.2031 -1.8789,1.7734 -3.082,1.2734 -1.2031,-0.5 -1.7734,-1.8789 -1.2734,-3.082 l 10.77,-25.883 c 0.82031,-1.9727 3.5703,-1.8867 4.3555,0 l 10.77,25.883 c 0.5,1.2031 -0.07031,2.582 -1.2734,3.082 -1.2031,0.5 -2.582,-0.07031 -3.082,-1.2734 L 68.2938,78.68 Z"
         fill-rule="evenodd"
         id="path4538"
         style="fill:#f1f2f6;fill-opacity:0.501961;stroke-width:85.3848" /></g><g
       id="g6037"
       transform="matrix(0.0022099,0,0,0.0022099,37.763969,0.07992004)"
       style="fill:#f1f2f6;fill-opacity:0.501961;stroke-width:159.636"><path
         d="M 149.27,901.09 624.88,663.3 V 621.648 L 65.96,901.098 Z"
         id="path5989"
         style="fill:#f1f2f6;fill-opacity:0.501961;stroke-width:3286.04" /><path
         d="M 190.96,901.09 H 531.71 V 730.7 Z"
         id="path5991"
         style="fill:#f1f2f6;fill-opacity:0.501961;stroke-width:3286.04" /><path
         d="m 718.02,901.09 h 340.79 L 718.02,730.7 Z"
         id="path5993"
         style="fill:#f1f2f6;fill-opacity:0.501961;stroke-width:3286.04" /><path
         d="M 1183.8,838.59 V 714.8 H 936.21 Z"
         id="path5995"
         style="fill:#f1f2f6;fill-opacity:0.501961;stroke-width:3286.04" /><path
         d="M 1183.8,404.68 936.18,528.5 h 247.64 z"
         id="path5997"
         style="fill:#f1f2f6;fill-opacity:0.501961;stroke-width:3286.04" /><path
         d="m 513.1,677.52 h 55.895 v 223.57 h 111.77 V 677.52 h 503.03 V 565.75 h -447.16 z"
         id="path5999"
         style="fill:#f1f2f6;fill-opacity:0.501961;stroke-width:3286.04" /><path
         d="m 16.211,298.89 v 303.66 h 410.54 l 0.004,-303.66 z m 339.72,40.633 4.7266,14.578 h 15.336 l -12.406,9 4.7539,14.578 -12.395,-9 -12.406,9 4.7539,-14.578 -12.395,-9 h 15.312 z m 12.383,97.453 -12.395,-9.0117 -12.406,9.0117 4.7539,-14.566 -12.395,-9.0234 h 15.324 l 4.7383,-14.578 4.7266,14.578 h 15.336 l -12.406,9.0234 z m 0,58.906 -12.395,-9 -12.406,9 4.7539,-14.578 -12.395,-9 h 15.324 l 4.7383,-14.578 4.7266,14.578 h 15.336 l -12.406,9 z m -33.277,28.574 -12.383,-9 -12.395,9 4.7383,-14.578 -12.395,-9.0234 h 15.312 l 4.7539,-14.566 4.7383,14.566 h 15.312 l -12.383,9.0234 z m -34.68,-28.574 -12.395,-9 -12.395,9 4.7539,-14.578 -12.406,-9 h 15.324 l 4.7383,-14.578 4.7539,14.578 h 15.312 l -12.383,9 z m -33.984,28.574 -12.395,-9 -12.406,9 4.7539,-14.578 -12.395,-9.0234 h 15.324 l 4.7383,-14.566 4.7266,14.566 h 15.324 l -12.395,9.0234 z m -35.074,-28.574 -12.395,-9 -12.395,9 4.7539,-14.578 -12.406,-9 h 15.324 l 4.7383,-14.578 4.7383,14.578 h 15.336 l -12.406,9 z m -33.613,28.574 -12.406,-9 -12.383,9 4.7383,-14.578 -12.395,-9.0234 h 15.324 l 4.7266,-14.566 4.7539,14.566 h 15.312 l -12.395,9.0234 z m -33.973,-28.574 -12.406,-9 -12.406,9 4.7539,-14.578 -12.395,-9 h 15.336 l 4.7266,-14.578 4.7383,14.578 h 15.324 l -12.395,9 z m -34.715,28.574 -12.383,-9 -12.395,9 4.7383,-14.578 -12.395,-9.0234 h 15.324 l 4.7383,-14.566 4.7383,14.566 h 15.324 l -12.395,9.0234 z m -33.984,-28.574 -12.395,-9 -12.395,9 4.7383,-14.578 -12.406,-9 h 15.336 l 4.7383,-14.578 4.7539,14.578 h 15.324 l -12.406,9 z m -32.473,-82.5 h 15.336 l 4.7383,-14.578 4.7539,14.578 h 15.324 l -12.406,9.0234 4.7383,14.566 -12.395,-9.0117 -12.395,9.0117 4.7383,-14.566 z m 272.5,-6.3828 -12.383,-9 -12.395,9 4.7383,-14.578 -12.395,-9.0234 h 15.312 l 4.7539,-14.555 4.7383,14.555 h 15.312 l -12.383,9.0234 z m 0,58.344 -12.383,-9.0234 -12.395,9.0234 4.7383,-14.605 -12.395,-9 h 15.312 l 4.7539,-14.578 4.7383,14.578 h 15.312 l -12.383,9 z m -27.023,-51.961 -12.383,9.0234 4.7266,14.566 -12.395,-9.0117 -12.395,9.0117 4.7539,-14.566 -12.406,-9.0234 h 15.324 l 4.7383,-14.578 4.7539,14.578 z m -41.641,51.961 -12.395,-9.0234 -12.406,9.0234 4.7539,-14.605 -12.395,-9 h 15.324 l 4.7383,-14.578 4.7266,14.578 h 15.324 l -12.395,9 z m -4.75,-72.91 4.7539,14.578 -12.395,-9 -12.406,9 4.7539,-14.578 -12.395,-9.0234 h 15.324 l 4.7383,-14.555 4.7266,14.555 h 15.324 z m -22.645,20.949 -12.406,9.0234 4.7383,14.566 -12.395,-9.0117 -12.395,9.0117 4.7539,-14.566 -12.406,-9.0234 h 15.324 l 4.7383,-14.578 4.7383,14.578 z m -41.293,51.961 -12.406,-9.0234 -12.383,9.0234 4.7383,-14.605 -12.395,-9 h 15.324 l 4.7266,-14.578 4.7539,14.578 h 15.312 l -12.395,9 z m -4.7383,-72.91 4.7539,14.578 -12.406,-9 -12.383,9 4.7383,-14.578 -12.395,-9.0234 h 15.324 l 4.7266,-14.555 4.7539,14.555 h 15.312 z m -21.566,20.949 -12.395,9.0234 4.7539,14.566 -12.406,-9.0117 -12.422,9.0117 4.7539,-14.566 -12.395,-9.0234 h 15.336 l 4.7266,-14.578 4.7383,14.578 z m -42.383,51.961 -12.383,-9.0234 -12.395,9.0234 4.7383,-14.605 -12.395,-9 h 15.324 l 4.7383,-14.578 4.7383,14.578 h 15.324 l -12.395,9 z m -4.7266,-71.16 4.7266,14.578 -12.383,-9 -12.395,9 4.7383,-14.578 -12.395,-9 h 15.324 l 4.7383,-14.578 4.7383,14.578 h 15.324 z m 193.64,-70.09 4.7539,-14.566 4.7383,14.566 h 15.312 l -12.383,9.0117 4.7266,14.566 -12.383,-9 -12.395,9 4.7383,-14.566 -12.395,-9.0117 z m -29.949,15.43 4.7539,14.578 h 15.312 l -12.383,9 4.7266,14.578 -12.395,-9 -12.395,9 4.7539,-14.578 -12.406,-9 h 15.324 z m -38.727,-15.43 4.7383,-14.566 4.7266,14.566 h 15.324 l -12.395,9.0117 4.7539,14.566 -12.395,-9 -12.406,9 4.7539,-14.566 -12.395,-9.0117 z m -30.336,15.43 4.7383,14.578 h 15.336 l -12.406,9 4.7383,14.578 -12.395,-9 -12.395,9 4.7539,-14.578 -12.406,-9 h 15.324 z m -38.352,-15.43 4.7266,-14.566 4.7539,14.566 h 15.312 l -12.395,9.0117 4.7539,14.566 -12.406,-9 -12.383,9 4.7383,-14.566 -12.395,-9.0117 z m -29.242,15.43 4.7383,14.578 h 15.324 l -12.395,9 4.7539,14.578 -12.406,-9 -12.406,9 4.7539,-14.578 -12.395,-9 h 15.336 z m -39.434,-15.43 4.7383,-14.566 4.7383,14.566 h 15.324 l -12.395,9.0117 4.7266,14.566 -12.383,-9 -12.395,9 4.7383,-14.566 -12.395,-9.0117 z m -29.254,15.43 4.7539,14.578 h 15.324 l -12.406,9 4.7383,14.578 -12.395,-9 -12.395,9 4.7383,-14.578 -12.406,-9 h 15.336 z m -38.352,-15.43 4.7383,-14.566 4.7383,14.566 h 15.336 l -12.406,9.0117 4.7383,14.566 -12.395,-9 -12.395,9 4.7383,-14.566 -12.383,-9.0117 z m 0,59.312 4.7383,-14.555 4.7383,14.555 h 15.336 l -12.406,9.0234 4.7383,14.578 -12.395,-9 -12.395,9 4.7383,-14.578 -12.383,-9.0234 z m 0,58.332 4.7383,-14.578 4.7383,14.578 h 15.336 l -12.406,9 4.7383,14.605 -12.395,-9.0234 -12.418,9.0234 4.7383,-14.605 -12.383,-9 z m 0,59.113 4.7383,-14.566 4.7383,14.566 h 15.336 l -12.418,9.0234 4.7383,14.578 -12.395,-9 -12.395,9 4.7383,-14.578 -12.383,-9.0234 z m 17.133,82.883 -12.395,-9.0117 -12.406,9.0117 4.7383,-14.594 -12.383,-8.9844 h 15.312 l 4.7383,-14.594 4.7383,14.594 h 15.336 l -12.406,8.9883 z m 21.219,-39.082 -12.395,9.0117 4.7383,-14.578 -12.406,-9.0117 h 15.336 l 4.7383,-14.566 4.7539,14.566 h 15.324 l -12.406,9.0117 4.7383,14.578 z m 46.379,39.082 -12.383,-9.0117 -12.395,9.0117 4.7383,-14.594 -12.422,-8.9844 h 15.324 l 4.7383,-14.594 4.7383,14.594 h 15.324 l -12.395,8.9883 z m 22.309,-39.082 -12.406,9.0117 4.7539,-14.578 -12.395,-9.0117 h 15.336 l 4.7266,-14.566 4.7383,14.566 h 15.324 l -12.395,9.0117 4.7539,14.578 z m 46.379,39.082 -12.406,-9.0117 -12.383,9.0117 4.7383,-14.594 -12.395,-8.9883 h 15.324 l 4.7266,-14.594 4.7539,14.594 h 15.312 l -12.395,8.9883 z m 21.215,-40.148 -12.395,9.0117 4.7539,-14.578 -12.406,-9.0234 h 15.324 l 4.7383,-14.566 4.7383,14.566 h 15.336 l -12.406,9.0234 4.7383,14.578 z m 47.473,41.23 -12.395,-9.0117 -12.406,9.0117 4.7539,-14.594 -12.395,-9 h 15.324 l 4.7383,-14.578 4.7266,14.578 h 15.324 l -12.395,9 z m 21.59,-40.164 -12.395,9.0234 4.7539,-14.594 -12.406,-9.0117 h 15.324 l 4.7383,-14.566 4.7539,14.566 h 15.312 l -12.383,9.0117 4.7266,14.594 z m 47.074,39.082 -12.383,-9.0117 -12.395,9.0117 4.7383,-14.594 -12.395,-8.9883 h 15.312 l 4.7539,-14.594 4.7383,14.594 h 15.312 l -12.383,8.9883 z m 20.895,-39.082 -12.406,9.0234 4.7539,-14.594 -12.395,-9.0117 H 351.2 l 4.7539,-14.566 4.7266,14.566 h 15.336 l -12.406,9.0117 4.7539,14.594 z m 46.367,39.082 -12.406,-9.0117 -12.406,9.0117 4.7539,-14.594 -12.395,-8.9883 h 15.336 l 4.7266,-14.594 4.7383,14.594 h 15.324 l -12.395,8.9883 z m -4.7539,-73.859 4.7539,14.578 -12.406,-9 -12.406,9 4.7539,-14.578 -12.395,-9.0234 h 15.336 l 4.7266,-14.566 4.7383,14.566 h 15.324 z m 0,-59.137 4.7539,14.605 -12.406,-9.0234 -12.406,9.0234 4.7539,-14.605 -12.395,-9 h 15.336 l 4.7266,-14.578 4.7383,14.578 h 15.324 z m 0,-58.305 4.7539,14.578 -12.406,-9 -12.406,9 4.7539,-14.578 -12.395,-9.0234 h 15.336 l 4.7266,-14.555 4.7383,14.555 h 15.324 z m 0,-59.328 4.7539,14.566 -12.406,-9 -12.406,9 4.7539,-14.566 -12.395,-9.0117 h 15.336 l 4.7266,-14.566 4.7383,14.566 h 15.324 z"
         id="path6001"
         style="fill:#f1f2f6;fill-opacity:0.501961;stroke-width:3286.04" /><path
         d="m 96.121,817.78 h -79.91 v 39.957 z"
         id="path6003"
         style="fill:#f1f2f6;fill-opacity:0.501961;stroke-width:3286.04" /><path
         d="m 16.211,731.69 v 43.379 h 165.31 l 86.762,-43.379 z"
         id="path6005"
         style="fill:#f1f2f6;fill-opacity:0.501961;stroke-width:3286.04" /><path
         d="m 16.211,645.6 v 43.391 h 337.46 L 440.444,645.6 Z"
         id="path6007"
         style="fill:#f1f2f6;fill-opacity:0.501961;stroke-width:3286.04" /><path
         d="m 427.01,559.16 v 43.379 h 99.551 l 86.75,-43.379 z"
         id="path6009"
         style="fill:#f1f2f6;fill-opacity:0.501961;stroke-width:3286.04" /><path
         d="m 426.95,471.07 v 43.395 h 275.78 l 86.762,-43.395 z"
         id="path6011"
         style="fill:#f1f2f6;fill-opacity:0.501961;stroke-width:3286.04" /><path
         d="m 426.95,385 v 43.367 H 874.91 L 961.672,385 Z"
         id="path6013"
         style="fill:#f1f2f6;fill-opacity:0.501961;stroke-width:3286.04" /><path
         d="m 1047.1,342.27 86.758,-43.371 h -706.92 v 43.371 z"
         id="path6015"
         style="fill:#f1f2f6;fill-opacity:0.501961;stroke-width:3286.04" /></g></g><g
     inkscape:label="Base"
     inkscape:groupmode="layer"
     id="layer1"
     style="display:inline"><circle
       style="fill:#555555;fill-opacity:1;stroke-width:0.999997;stroke-linejoin:round;stroke-dasharray:2, 2;stroke-opacity:0.278431;paint-order:stroke fill markers"
       id="path234"
       cx="6.3499994"
       cy="4.620554"
       r="3.96875"
       inkscape:label="Background" /></g><g
     inkscape:groupmode="layer"
     id="layer2"
     inkscape:label="Main shape"
     style="display:inline"><circle
       style="fill:none;fill-opacity:1;stroke:#f1f2f6;stroke-width:0.529167;stroke-linejoin:round;stroke-dasharray:none;stroke-opacity:1;paint-order:stroke fill markers"
       id="path950"
       cx="6.3499994"
       cy="4.620554"
       r="3.3072915" /><circle
       style="fill:none;fill-opacity:1;stroke:#f1f2f6;stroke-width:0.529167;stroke-linejoin:round;stroke-dasharray:none;stroke-opacity:1;paint-order:stroke fill markers"
       id="path950-2"
       cx="6.3499994"
       cy="4.620554"
       r="2.2489581" /><rect
       style="fill:#f1f2f6;fill-opacity:1;stroke:#555555;stroke-width:0.529167;stroke-linejoin:miter;stroke-dasharray:none;stroke-opacity:1;paint-order:stroke fill markers"
       id="rect4757"
       width="0.5291667"
       height="4.4018087"
       x="6.0854177"
       y="5.9485559"
       ry="0" /><circle
       style="fill:none;fill-opacity:1;stroke:#f1f2f6;stroke-width:0.529167;stroke-linejoin:round;stroke-dasharray:none;stroke-opacity:1;paint-order:stroke fill markers"
       id="path2478"
       cx="6.3499994"
       cy="4.620554"
       r="1.1906248" /><circle
       style="fill:#f1f2f6;fill-opacity:1;stroke:#555555;stroke-width:0.529167;stroke-linejoin:miter;stroke-dasharray:none;stroke-opacity:1;paint-order:stroke fill markers"
       id="path5614"
       cx="6.3499999"
       cy="11.110179"
       r="0.68212891" /></g><g
     inkscape:groupmode="layer"
     id="layer3"
     inkscape:label="Cut off"
     style="display:inline"><path
       style="fill:none;fill-opacity:1;stroke:#555555;stroke-width:0.529166;stroke-linejoin:round;stroke-dasharray:none;stroke-opacity:1;paint-order:stroke fill markers"
       d="M 2.5796872,4.6205542 H 4.8947915"
       id="path4043"
       inkscape:label="path4043" /><path
       style="fill:none;fill-opacity:1;stroke:#555555;stroke-width:0.529166;stroke-linejoin:round;stroke-dasharray:none;stroke-opacity:1;paint-order:stroke fill markers"
       d="M 7.8052081,4.6205542 H 10.120313"
       id="path4043-0"
       inkscape:label="path4043" /><path
       style="fill:none;fill-opacity:1;stroke:#555555;stroke-width:0.529165;stroke-linejoin:round;stroke-dasharray:none;stroke-opacity:1;paint-order:stroke fill markers"
       d="M 6.3500003,0.85024163 V 3.1653459"
       id="path4043-7" /><path
       style="fill:#555555;fill-opacity:1;stroke:none;stroke-width:0.529167;stroke-linejoin:miter;stroke-dasharray:none;stroke-opacity:1;paint-order:stroke fill markers"
       d="M 6.3499996,4.6205541 5.8208344,6.4589062 4.7550173,5.2131828 Z"
       id="path8846"
       sodipodi:nodetypes="cccc" /></g></svg>
